<svg id="Isolatiemodus" xmlns="http://www.w3.org/2000/svg" viewBox="0 0 269.24 264.3"><defs><style>.cls-1{fill:#0be900;}</style></defs><title>brog</title><path class="cls-1" d="M396.66,785.72a134,134,0,0,0-27.88-42.1,139.13,139.13,0,0,0-42.45-29.45Q301.77,703,272.23,703q-7.08,0-7.07,6v27.19a90.17,90.17,0,0,0-37.66,10,103,103,0,0,0-28.92,22.27,95.29,95.29,0,0,0-18.52,30.59,99.42,99.42,0,0,0-6.45,35.3,97.89,97.89,0,0,0,7.07,36.62,95.75,95.75,0,0,0,20.19,31.34,101.49,101.49,0,0,0,31.21,21.9q18.09,8.31,40.15,8.31a98.4,98.4,0,0,0,40.37-8.12,96.28,96.28,0,0,0,31.21-21.71A100.66,100.66,0,0,0,364,871.43a96.61,96.61,0,0,0,7.28-37,97.16,97.16,0,0,0-16.85-55.32A101.31,101.31,0,0,0,335.07,758a95.62,95.62,0,0,0-25.38-14.91,6.42,6.42,0,0,0-2.5-.38q-5,0-6.24,3.77a5.11,5.11,0,0,0-.21,4.72,5.35,5.35,0,0,0,3.54,3.21,82.43,82.43,0,0,1,38.9,31.34q14.37,21.53,14.36,48.71a87.59,87.59,0,0,1-6,32.09,83.82,83.82,0,0,1-17.27,27.38A85.08,85.08,0,0,1,307.19,913a83.72,83.72,0,0,1-35,7.17A82.21,82.21,0,0,1,237.49,913a84.26,84.26,0,0,1-26.85-19.26,87.64,87.64,0,0,1-23.3-59.28,88.77,88.77,0,0,1,23.1-59.66,81.14,81.14,0,0,1,26.84-19.25,83.65,83.65,0,0,1,35-7.18q6.66,0,6.66-6V715.49a117.68,117.68,0,0,1,46.4,12.09,123,123,0,0,1,36,27A121.73,121.73,0,0,1,384.59,792a116,116,0,0,1-.62,87.79,124.2,124.2,0,0,1-25,38.32,121.19,121.19,0,0,1-38.08,26.81q-22.07,10-48.69,10t-48.89-10a120.47,120.47,0,0,1-63.26-64.94,116.27,116.27,0,0,1-8.94-44.75A119.76,119.76,0,0,1,169,772.32a116.18,116.18,0,0,1,21.64-25.68A127.54,127.54,0,0,1,219.8,727.2a6.75,6.75,0,0,0,3.54-3.59,5.29,5.29,0,0,0-.63-5.1,6.69,6.69,0,0,0-5.82-3c-1.67,0-2.78.26-3.33.76a127.06,127.06,0,0,0-32.05,21.14,133.86,133.86,0,0,0-38.9,61.93,126.43,126.43,0,0,0-5.21,35.86,127.9,127.9,0,0,0,10,49.66,133.3,133.3,0,0,0,27.88,42.29,135.56,135.56,0,0,0,42.66,29.26q24.75,11,54.3,11a131.75,131.75,0,0,0,53.89-11,135.56,135.56,0,0,0,42.66-29.26,133.47,133.47,0,0,0,27.88-42.29,127.9,127.9,0,0,0,10-49.66A126.53,126.53,0,0,0,396.66,785.72Z" transform="translate(-137.4 -703.03)"/><path class="cls-1" d="M284.43,852a3.12,3.12,0,0,0,4.41,0h0a23.79,23.79,0,0,0,0-33.66,3.12,3.12,0,0,0-4.41,4.41,17.58,17.58,0,0,1,0,24.84A3.11,3.11,0,0,0,284.43,852Z" transform="translate(-137.4 -703.03)"/><path class="cls-1" d="M259.59,852a3.11,3.11,0,0,0,0-4.41,17.6,17.6,0,0,1,0-24.84,3.12,3.12,0,0,0-4.41-4.41,23.81,23.81,0,0,0,0,33.66A3.11,3.11,0,0,0,259.59,852Z" transform="translate(-137.4 -703.03)"/><path class="cls-1" d="M294.18,808.61a3.12,3.12,0,0,0,0,4.4,31.38,31.38,0,0,1,0,44.34,3.12,3.12,0,1,0,4.41,4.41,37.54,37.54,0,0,0,0-53.16A3.12,3.12,0,0,0,294.18,808.61Z" transform="translate(-137.4 -703.03)"/><path class="cls-1" d="M249.84,861.75a3.1,3.1,0,0,0,0-4.4,31.53,31.53,0,0,1,0-44.34,3.12,3.12,0,0,0-4.41-4.41,37.64,37.64,0,0,0,0,53.16A3.11,3.11,0,0,0,249.84,861.75Z" transform="translate(-137.4 -703.03)"/><path class="cls-1" d="M303.93,867.1a3.12,3.12,0,1,0,4.41,4.41,51.37,51.37,0,0,0,0-72.66,3.12,3.12,0,0,0-4.41,4.41A45.19,45.19,0,0,1,303.93,867.1Z" transform="translate(-137.4 -703.03)"/><path class="cls-1" d="M240.09,803.26a3.12,3.12,0,0,0-4.41-4.41,51.44,51.44,0,0,0,0,72.66,3.12,3.12,0,1,0,4.41-4.41A45.36,45.36,0,0,1,240.09,803.26Z" transform="translate(-137.4 -703.03)"/><path class="cls-1" d="M272,827.19a8,8,0,1,0,8,8A8,8,0,0,0,272,827.19Zm0,9.75a1.76,1.76,0,1,1,1.76-1.76A1.75,1.75,0,0,1,272,836.94Z" transform="translate(-137.4 -703.03)"/></svg>