<svg id="Isolatiemodus" xmlns="http://www.w3.org/2000/svg" viewBox="0 0 269.24 264.3"><defs><style>.cls-1{fill:#0be900;}</style></defs><title>devg</title><path class="cls-1" d="M135.51,159.86A126.55,126.55,0,0,1,140.72,124a133.9,133.9,0,0,1,38.9-61.92,126.83,126.83,0,0,1,32-21.15q.83-.75,3.33-.75a6.69,6.69,0,0,1,5.82,3,5.29,5.29,0,0,1,.63,5.1,6.7,6.7,0,0,1-3.54,3.58,127.58,127.58,0,0,0-29.13,19.45A116.18,116.18,0,0,0,167.14,97a119.76,119.76,0,0,0-17.89,62.86,116.22,116.22,0,0,0,8.94,44.74,120.44,120.44,0,0,0,63.26,65q22.25,10,48.89,10t48.69-10a121.35,121.35,0,0,0,38.08-26.81,124.43,124.43,0,0,0,25-38.32,116,116,0,0,0,.62-87.79,121.73,121.73,0,0,0-23.3-37.38,123,123,0,0,0-36-27A117.84,117.84,0,0,0,277,40.17V67q0,6-6.66,6a83.64,83.64,0,0,0-34.95,7.17,81.31,81.31,0,0,0-26.84,19.26,88.72,88.72,0,0,0-23.1,59.66,87.69,87.69,0,0,0,23.3,59.28,84.23,84.23,0,0,0,26.85,19.25,82.06,82.06,0,0,0,34.74,7.18,83.57,83.57,0,0,0,35-7.18,85.21,85.21,0,0,0,27.05-19.06,83.82,83.82,0,0,0,17.27-27.38,87.63,87.63,0,0,0,6-32.09q0-27.2-14.36-48.71a82.43,82.43,0,0,0-38.9-31.34,5.35,5.35,0,0,1-3.54-3.21,5.11,5.11,0,0,1,.21-4.72q1.24-3.76,6.24-3.77a6.64,6.64,0,0,1,2.5.37,95.64,95.64,0,0,1,25.38,14.92,101.06,101.06,0,0,1,19.35,21.14,98.62,98.62,0,0,1,9.57,92.32,100.77,100.77,0,0,1-20.18,31.34,96.28,96.28,0,0,1-31.21,21.71,98.4,98.4,0,0,1-40.37,8.12q-22,0-40.15-8.31A101.66,101.66,0,0,1,199,227.07a95.75,95.75,0,0,1-20.19-31.34,97.93,97.93,0,0,1-7.07-36.62,99.47,99.47,0,0,1,6.45-35.31,95.35,95.35,0,0,1,18.52-30.58,103.22,103.22,0,0,1,28.92-22.28,90.31,90.31,0,0,1,37.66-10V33.75q0-6,7.07-6,29.55,0,54.1,11.14A139,139,0,0,1,366.89,68.3a134,134,0,0,1,27.88,42.1,126.53,126.53,0,0,1,10,49.46,127.85,127.85,0,0,1-10,49.65,133.24,133.24,0,0,1-27.88,42.29,135.4,135.4,0,0,1-42.66,29.26Q299.47,292,270.34,292q-29.55,0-54.3-10.95a135.4,135.4,0,0,1-42.66-29.26,133.08,133.08,0,0,1-27.88-42.29A127.85,127.85,0,0,1,135.51,159.86Z" transform="translate(-135.51 -27.71)"/><path class="cls-1" d="M270.24,102.21h11.53a3.85,3.85,0,1,1,0,7.69H270.24a3.84,3.84,0,0,0-3.84,3.84v24.83a29.05,29.05,0,0,1-9.19,21.29A28.92,28.92,0,0,1,266.4,181v25.26a3.61,3.61,0,0,0,3.61,3.61h11.76a3.85,3.85,0,1,1,0,7.69H270a11.3,11.3,0,0,1-11.3-11.3h0v-25.3A21.28,21.28,0,0,0,249,163.05a3.87,3.87,0,0,1-.26-6.42l.8-.57a21.37,21.37,0,0,0,9.15-17.49V113.74A11.53,11.53,0,0,1,270.24,102.21Z" transform="translate(-135.51 -27.71)"/></svg>