<svg id="Laag_1" data-name="Laag 1" xmlns="http://www.w3.org/2000/svg" viewBox="0 0 83.03 32.15"><defs><style>.cls-1{fill:#000;}</style></defs><title>key</title><path class="cls-1" d="M24.56,65.31A16.08,16.08,0,1,1,40.63,49.23,16.09,16.09,0,0,1,24.56,65.31Zm0-27.45A11.37,11.37,0,1,0,35.93,49.23,11.38,11.38,0,0,0,24.56,37.86Z" transform="translate(-8.49 -33.16)"/><path class="cls-1" d="M88.88,51.87H38.65a2.64,2.64,0,1,1,0-5.28H88.88a2.64,2.64,0,0,1,0,5.28Z" transform="translate(-8.49 -33.16)"/><path class="cls-1" d="M81.09,50.5V61.6a2.64,2.64,0,1,0,5.28,0V50.5Z" transform="translate(-8.49 -33.16)"/><path class="cls-1" d="M70.92,50.5V61.6a2.64,2.64,0,1,0,5.27,0V50.5Z" transform="translate(-8.49 -33.16)"/></svg>