<svg xmlns="http://www.w3.org/2000/svg" viewBox="0 0 75 92.05"><defs><style>.a{fill:#fff;}</style></defs><title>noun_Lock_2580727</title><path class="a" d="M50,4C35,4,22.73,15.07,22.73,28.69v9.57A12.33,12.33,0,0,0,12.5,50.39V83.7A12.34,12.34,0,0,0,24.82,96H75.18A12.33,12.33,0,0,0,87.5,83.7V50.39A12.33,12.33,0,0,0,77.27,38.26V28.69C77.27,15.07,65,4,50,4Zm0,3.41c13.16,0,23.86,9.55,23.86,21.3v9.38H26.14V28.69C26.14,16.94,36.84,7.39,50,7.39ZM24.82,41.48H75.18a8.92,8.92,0,0,1,8.91,8.91V83.7a8.92,8.92,0,0,1-8.91,8.91H24.82a8.92,8.92,0,0,1-8.91-8.91V50.39A8.92,8.92,0,0,1,24.82,41.48Z" transform="translate(-12.5 -3.98)"/></svg>